<?xml version="1.0" standalone="no"?>
<!DOCTYPE svg PUBLIC "-//W3C//DTD SVG 20010904//EN"
 "http://www.w3.org/TR/2001/REC-SVG-20010904/DTD/svg10.dtd">
<svg version="1.0" xmlns="http://www.w3.org/2000/svg"
 width="531.000000pt" height="346.000000pt" viewBox="0 0 531.000000 346.000000"
 preserveAspectRatio="xMidYMid meet">

<g transform="translate(0.000000,346.000000) scale(0.100000,-0.100000)"
fill="#000000" stroke="none">
<path d="M2782 2913 c-7 -3 -19 -17 -27 -33 -10 -20 -25 -30 -52 -35 -90 -17
-208 -102 -218 -159 -14 -71 21 -104 135 -125 36 -7 75 -14 88 -17 12 -2 35
-18 50 -35 33 -38 61 -53 130 -69 30 -7 59 -21 70 -34 24 -30 181 -155 217
-173 19 -9 42 -36 64 -76 38 -69 68 -107 87 -107 19 0 56 -52 45 -63 -6 -6
-29 -4 -63 4 -38 10 -175 15 -478 19 l-425 5 3 50 c7 100 31 175 64 203 56 47
74 132 43 205 -18 43 -54 73 -107 89 -22 6 -42 18 -45 25 -3 7 -9 10 -14 7 -5
-3 -6 1 -4 9 8 19 -61 86 -114 111 -61 27 -180 29 -232 3 -57 -28 -116 -84
-135 -128 -14 -29 -30 -45 -63 -62 -71 -35 -110 -118 -92 -198 7 -31 22 -54
54 -84 34 -31 47 -51 57 -93 7 -29 10 -55 7 -58 -10 -11 -152 19 -185 39 -31
18 -53 22 -127 22 -80 0 -95 -3 -137 -27 -88 -52 -158 -161 -158 -245 0 -11
-11 -34 -25 -53 -52 -70 -20 -195 60 -233 36 -17 179 -222 171 -244 -3 -7 -16
-13 -29 -13 -30 0 -73 -33 -92 -70 -10 -19 -26 -31 -47 -35 -52 -12 -126 -53
-174 -97 -37 -34 -44 -47 -44 -78 0 -27 -9 -48 -31 -76 -40 -50 -86 -140 -94
-186 -4 -22 -1 -48 8 -71 24 -57 61 -58 183 -7 79 34 110 42 155 41 38 -1 71
5 105 21 44 20 66 22 224 24 160 1 181 -1 246 -22 42 -15 92 -24 125 -23 40 1
71 -7 119 -29 106 -49 133 -53 177 -31 37 19 64 20 1036 20 593 0 1020 4 1050
9 181 34 250 156 174 306 -23 46 -104 136 -141 156 -24 14 -19 32 13 51 44 26
111 100 134 149 31 66 31 217 -2 278 -53 102 -101 144 -206 181 l-50 17 -12
63 c-18 85 -48 141 -108 198 -120 113 -287 121 -422 20 -29 -21 -55 -39 -58
-39 -10 0 -5 28 8 39 39 32 5 181 -63 273 -25 35 -30 51 -30 98 0 45 -6 65
-29 102 -43 68 -147 169 -216 209 -118 69 -187 84 -244 55 -24 -13 -31 -13
-47 -1 -38 26 -219 46 -262 28z m177 -33 c52 -10 97 -23 102 -27 4 -4 -2 -42
-13 -83 -26 -99 -98 -320 -104 -320 -22 0 -135 45 -147 58 -12 13 -16 52 -18
182 -4 170 1 194 36 203 35 8 48 7 144 -13z m326 -55 c39 -19 98 -59 132 -90
63 -56 143 -170 143 -203 0 -25 -34 -55 -190 -164 -176 -124 -175 -124 -204
-101 -126 97 -166 131 -176 148 -8 16 -1 52 41 185 28 91 56 183 61 205 6 22
19 48 29 57 24 20 62 12 164 -37z m-542 -132 c3 -70 5 -128 4 -130 -1 -1 -38
7 -82 18 -44 10 -92 21 -107 24 -15 3 -32 15 -39 26 -25 48 23 115 115 159
104 49 102 51 109 -97z m-530 -9 c57 -29 99 -66 113 -100 11 -26 23 -36 53
-44 76 -20 126 -83 122 -154 -3 -52 -12 -67 -60 -101 -35 -24 -48 -27 -91 -23
-28 3 -59 13 -69 22 -19 17 -61 15 -61 -4 0 -4 -19 -15 -42 -25 -48 -19 -103
-13 -154 17 l-33 19 -42 -30 c-79 -58 -164 -29 -206 68 -28 66 5 129 89 172
21 11 45 34 54 52 29 56 75 106 118 127 52 25 162 28 209 4z m1360 -252 c25
-28 86 -164 93 -210 9 -57 13 -56 -318 -148 -9 -3 -26 5 -38 18 -23 24 -70
114 -70 132 0 11 296 226 310 226 4 0 14 -8 23 -18z m-1283 -192 c22 -11 58
-20 81 -20 38 0 41 -2 36 -22 -3 -13 -11 -53 -17 -90 -15 -82 -24 -96 -75
-100 -45 -3 -44 -8 -27 115 7 45 6 57 -4 57 -15 0 -17 -8 -35 -117 l-12 -71
-41 -11 c-22 -5 -44 -7 -49 -2 -4 4 -6 59 -5 121 l3 114 34 7 c18 4 40 14 49
23 20 20 15 20 62 -4z m-260 -15 c14 -8 37 -14 53 -15 24 0 27 -4 27 -33 0
-19 3 -74 6 -123 l7 -90 -43 -17 c-24 -9 -44 -16 -45 -14 -1 1 -13 51 -27 111
-13 61 -30 112 -36 114 -16 5 -15 -17 8 -137 12 -60 17 -108 12 -113 -5 -5
-20 -6 -33 -3 -25 6 -34 26 -95 200 -33 95 -33 95 25 95 34 0 56 6 72 20 29
23 36 24 69 5z m2007 -56 c60 -25 127 -89 161 -154 23 -43 27 -62 27 -135 0
-76 -3 -91 -30 -139 -56 -101 -165 -171 -267 -171 -204 0 -363 206 -303 391
32 96 116 187 200 217 53 18 158 14 212 -9z m-2402 -69 c35 -19 72 -30 96 -30
83 0 132 -39 150 -120 18 -79 -41 -153 -129 -165 -58 -8 -75 -16 -130 -60 -39
-32 -50 -35 -107 -35 -56 0 -64 -3 -79 -25 -35 -53 -118 -73 -174 -40 -65 39
-82 128 -37 200 13 22 25 49 25 61 0 40 32 112 67 153 54 64 111 89 204 90 45
1 69 -5 114 -29z m1995 -15 c0 -13 -8 -46 -19 -72 -10 -26 -22 -67 -26 -91
l-7 -42 -41 25 c-23 14 -58 33 -78 41 -26 11 -42 27 -54 55 -10 21 -15 42 -11
47 9 8 192 60 219 61 12 1 17 -6 17 -24z m-993 -136 c283 -72 395 -245 254
-392 l-36 -38 -5 -370 c-5 -352 -6 -371 -24 -385 -16 -11 -70 -14 -272 -14
l-251 0 -6 45 c-8 52 -46 133 -91 189 -18 24 -29 49 -28 62 6 47 -44 103 -135
151 l-53 28 0 151 0 150 -31 30 c-103 96 -82 229 49 313 60 38 198 87 285 100
87 14 251 4 344 -20z m573 20 c110 -13 193 -35 255 -65 92 -46 113 -65 126
-114 6 -25 22 -64 36 -87 30 -54 23 -86 -28 -135 l-39 -36 0 -106 0 -105 -57
-16 c-163 -48 -334 -183 -378 -300 -13 -33 -16 -62 -12 -108 5 -58 8 -64 52
-104 l47 -43 -172 0 c-160 0 -172 1 -164 18 5 9 10 178 12 375 l3 357 260 0
c252 0 259 1 259 20 0 19 -7 20 -242 20 l-241 0 20 23 c34 36 43 63 43 120 0
57 -30 128 -73 175 -12 13 -67 46 -122 72 l-100 49 215 1 c119 0 254 -5 300
-11z m-1260 -98 c-1 -12 -38 -51 -49 -51 -14 0 -14 5 4 40 10 19 20 27 30 24
8 -4 15 -9 15 -13z m2385 -54 c63 -31 125 -89 152 -144 24 -51 28 -69 28 -148
0 -73 -4 -98 -22 -131 -32 -61 -69 -101 -120 -131 -41 -24 -49 -25 -77 -14
-119 49 -191 73 -255 86 -83 18 -94 27 -116 99 -26 84 -16 106 45 106 19 0 59
12 89 25 30 14 62 25 70 24 34 -3 41 2 41 27 0 14 11 39 24 55 24 29 66 126
66 155 0 15 34 12 75 -9z m-2479 -116 c-1 -67 2 -84 22 -110 38 -51 23 -151
-23 -151 -11 0 -36 125 -51 260 -6 52 -5 57 17 67 13 7 27 12 30 12 3 1 5 -35
5 -78z m-87 -38 c7 -43 19 -112 27 -154 18 -100 19 -96 -18 -119 -40 -24 -44
-25 -51 -2 -3 9 -28 76 -56 147 -53 136 -58 155 -40 155 6 0 24 11 41 25 16
14 42 25 57 25 26 0 27 -3 40 -77z m-144 -118 c24 -60 47 -122 50 -137 7 -28
7 -28 -43 -28 l-49 0 -40 63 c-104 166 -105 168 -87 188 14 16 68 28 112 25 8
-1 33 -50 57 -111z m2114 56 c39 -24 88 -44 137 -56 6 -2 12 -26 13 -55 1 -28
8 -65 16 -80 31 -60 39 -58 -280 -74 l-30 -1 -3 89 c-3 88 -2 90 27 116 16 15
36 41 45 58 9 18 19 32 23 32 3 0 27 -13 52 -29z m-2266 -118 c67 -101 69
-113 16 -113 -27 0 -40 15 -122 147 -32 50 -32 50 -9 56 43 11 51 5 115 -90z
m487 -103 c0 -131 -1 -140 -19 -140 -11 0 -28 15 -40 36 -14 23 -37 42 -66 55
-25 11 -45 23 -45 27 0 4 30 25 68 48 57 34 68 46 76 77 18 70 26 37 26 -103z
m-205 -55 c69 -18 109 -43 112 -71 1 -10 -28 -109 -65 -219 l-67 -200 -110 -5
c-60 -3 -120 -4 -131 -2 -19 3 -31 32 -88 203 -36 110 -66 210 -66 222 0 28
44 56 115 73 72 18 230 17 300 -1z m2094 -40 c38 -44 68 -101 80 -154 11 -51
0 -52 -30 -3 -32 51 -105 128 -146 153 -40 25 -30 39 28 39 30 0 43 -7 68 -35z
m110 24 c24 -5 60 -23 80 -38 38 -31 121 -161 141 -223 12 -39 27 -47 48 -26
15 15 16 134 1 177 -6 18 -9 34 -6 37 14 15 151 -72 205 -131 70 -75 92 -118
92 -182 0 -90 -51 -137 -175 -163 -93 -20 -971 -16 -1044 4 -146 41 -198 142
-128 256 29 48 116 139 149 156 61 32 128 3 223 -96 48 -49 92 -80 115 -80 34
0 -32 159 -96 229 -20 23 -35 44 -32 46 11 11 119 27 142 21 39 -10 187 -156
226 -225 38 -65 65 -78 76 -37 8 34 -30 166 -66 224 -16 27 -30 52 -30 56 0 9
28 7 79 -5z m191 -43 c19 -8 30 -28 48 -88 34 -110 20 -135 -23 -43 -18 39
-49 86 -69 104 -20 19 -36 39 -36 43 0 10 43 1 80 -16z m-634 -31 c31 -21 104
-138 104 -165 0 -20 -8 -15 -59 38 -33 33 -80 72 -105 87 -25 15 -46 29 -46
31 0 7 43 23 65 23 11 1 30 -6 41 -14z m-2190 -70 c7 -28 33 -111 58 -184 25
-74 43 -138 40 -142 -9 -15 -136 -51 -157 -45 -18 5 -166 191 -200 252 -9 15
7 52 32 72 24 20 195 102 205 99 5 -2 15 -25 22 -52z m680 10 c82 -40 134 -82
134 -108 0 -25 -45 -92 -138 -210 -53 -67 -55 -69 -91 -62 -57 9 -131 38 -131
50 0 8 94 297 115 354 6 17 41 9 111 -24z m-872 -284 c68 -91 77 -111 50 -111
-9 0 -52 -16 -95 -35 -89 -39 -111 -42 -129 -20 -18 21 -14 99 7 138 25 49 77
116 89 117 7 0 42 -40 78 -89z m1052 62 c46 -54 75 -120 76 -174 0 -58 -12
-72 -57 -65 -40 5 -195 69 -195 79 0 10 84 131 113 165 26 28 35 28 63 -5z"/>
<path d="M2114 2635 c-11 -29 35 -61 51 -35 8 12 -16 50 -33 50 -7 0 -15 -7
-18 -15z"/>
<path d="M1995 2566 c-20 -14 -15 -46 8 -46 19 0 50 36 42 49 -9 15 -27 14
-50 -3z"/>
<path d="M2268 2503 c-18 -5 -31 -30 -22 -44 8 -13 19 -11 44 9 18 14 20 20 9
28 -8 6 -21 9 -31 7z"/>
<path d="M2064 2445 c-7 -18 13 -45 33 -45 19 0 28 27 13 45 -16 19 -39 19
-46 0z"/>
<path d="M1850 2375 c0 -28 24 -34 34 -9 8 20 -1 34 -20 34 -8 0 -14 -10 -14
-25z"/>
<path d="M3935 2090 c-9 -15 4 -30 26 -30 12 0 19 7 19 20 0 21 -33 29 -45 10z"/>
<path d="M3756 2004 c-22 -21 -20 -51 4 -64 43 -23 83 17 60 60 -13 24 -43 26
-64 4z"/>
<path d="M4060 1925 c-17 -20 -5 -62 20 -70 44 -14 80 41 48 73 -17 17 -53 15
-68 -3z"/>
<path d="M3915 1881 c-8 -15 3 -31 21 -31 9 0 14 7 12 17 -4 20 -24 28 -33 14z"/>
<path d="M3755 1780 c-8 -14 3 -30 21 -30 8 0 14 9 14 20 0 21 -24 28 -35 10z"/>
<path d="M3915 1729 c-11 -17 4 -57 24 -64 38 -12 68 18 56 56 -5 14 -16 19
-40 19 -19 0 -37 -5 -40 -11z"/>
<path d="M1410 2015 c0 -8 7 -15 15 -15 8 0 15 7 15 15 0 8 -7 15 -15 15 -8 0
-15 -7 -15 -15z"/>
<path d="M1602 2008 c-17 -17 -15 -49 2 -42 18 7 29 35 18 46 -4 4 -13 3 -20
-4z"/>
<path d="M1752 1889 c2 -6 8 -10 13 -10 5 0 11 4 13 10 2 6 -4 11 -13 11 -9 0
-15 -5 -13 -11z"/>
<path d="M1492 1874 c2 -11 11 -20 22 -22 13 -3 17 1 14 14 -2 11 -11 20 -22
22 -13 3 -17 -1 -14 -14z"/>
<path d="M1320 1845 c0 -8 7 -15 15 -15 8 0 15 7 15 15 0 8 -7 15 -15 15 -8 0
-15 -7 -15 -15z"/>
<path d="M4353 1644 c-8 -21 13 -42 28 -27 13 13 5 43 -11 43 -6 0 -13 -7 -17
-16z"/>
<path d="M4227 1536 c-7 -18 1 -26 25 -26 11 0 18 7 18 20 0 23 -35 28 -43 6z"/>
<path d="M4347 1482 c-23 -25 -21 -59 4 -72 52 -28 102 28 64 70 -23 25 -47
25 -68 2z"/>
<path d="M4087 1443 c-15 -15 -6 -63 13 -73 43 -23 83 17 60 60 -10 19 -58 28
-73 13z"/>
</g>
</svg>
